<svg width="145" height="28" viewBox="0 0 145 28" fill="none" xmlns="http://www.w3.org/2000/svg">
    <g clip-path="url(#clip0_232_535)">
        <mask id="mask0_232_535" style="mask-type:luminance" maskUnits="userSpaceOnUse" x="0" y="0" width="145" height="28">
            <path d="M8.31967 9.48751H36.0691V18.457H8.31967V9.48751ZM0 27.4821H44.4405V0.518066H0V27.4264V27.4821ZM57.2042 0.518066L56.8425 0.908042V5.92202L57.2042 6.31199H64.3353L64.6971 6.70197V27.0921L65.0588 27.4821H70.743L71.1048 27.0921V6.70197L71.4665 6.31199H78.5976L78.9594 5.92202V0.908042L78.5976 0.518066H57.2042ZM86.8139 16.2842L89.2944 8.98611H89.6561L92.1365 16.2842L91.7747 16.6742H87.124L86.7623 16.2842H86.8139ZM86.4522 0.518066L86.0905 0.908042L78.2359 22.0782V27.0921L78.5976 27.4821H82.8867L83.2484 27.0921L84.6953 22.8581L85.4187 22.4681H93.6351L94.3585 22.8581L95.8054 27.0921L96.1671 27.4821H100.456L100.818 27.0921V22.0782L92.8599 0.908042L92.4982 0.518066H86.4522ZM104.28 0.518066L103.918 0.908042V27.0921L104.28 27.4821H121.074L121.436 27.0921V22.0782L121.074 21.6882H110.739L110.378 21.2982V0.908042L110.016 0.518066H104.332H104.28ZM141.744 0.518066L141.021 0.908042L131.409 11.326H131.048V0.908042L130.686 0.518066H125.002L124.64 0.908042V27.0921L125.002 27.4821H130.686L131.048 27.0921V20.574L132.856 18.6241H133.218L141.073 27.0921L141.796 27.4821H144.638L145 27.0921V22.0782L137.507 14.0001V13.6101L144.638 5.92202V0.908042L144.277 0.518066H141.744Z" fill="white"/>
        </mask>
        <g mask="url(#mask0_232_535)">
            <path d="M145 0.518066H0V27.4821H145V0.518066Z" fill="url(#paint0_linear_232_535)"/>
        </g>
    </g>
    <defs>
        <linearGradient id="paint0_linear_232_535" x1="-1.61123" y1="7.12426" x2="143.389" y2="7.12426" gradientUnits="userSpaceOnUse">
            <stop stop-color="#00C8FF"/>
            <stop offset="1" stop-color="#00C800"/>
        </linearGradient>
        <clipPath id="clip0_232_535">
            <rect width="145" height="26.964" fill="white" transform="translate(0 0.518066)"/>
        </clipPath>
    </defs>
</svg>